<svg width="725" height="312" viewBox="0 0 725 312" fill="none" xmlns="http://www.w3.org/2000/svg">
<rect opacity="0.2" x="129" y="2" width="467" height="308" fill="#241722" stroke="url(#paint0_linear_478_212)" stroke-width="4"/>
<path d="M72.576 111.144V128.68H48.768V201H26.88V128.68H3.072V111.144H72.576ZM126.057 201.896C117.609 201.896 109.844 199.933 102.761 196.008C95.7637 192.083 90.1743 186.621 85.993 179.624C81.897 172.541 79.849 164.605 79.849 155.816C79.849 147.027 81.897 139.133 85.993 132.136C90.1743 125.139 95.7637 119.677 102.761 115.752C109.844 111.827 117.609 109.864 126.057 109.864C134.505 109.864 142.228 111.827 149.225 115.752C156.308 119.677 161.854 125.139 165.865 132.136C169.961 139.133 172.009 147.027 172.009 155.816C172.009 164.605 169.961 172.541 165.865 179.624C161.769 186.621 156.222 192.083 149.225 196.008C142.228 199.933 134.505 201.896 126.057 201.896ZM126.057 181.928C133.225 181.928 138.942 179.539 143.209 174.76C147.561 169.981 149.737 163.667 149.737 155.816C149.737 147.88 147.561 141.565 143.209 136.872C138.942 132.093 133.225 129.704 126.057 129.704C118.804 129.704 113.001 132.051 108.649 136.744C104.382 141.437 102.249 147.795 102.249 155.816C102.249 163.752 104.382 170.109 108.649 174.888C113.001 179.581 118.804 181.928 126.057 181.928ZM239.226 146.984V165.16H182.906V146.984H239.226ZM292.1 111.144C301.572 111.144 309.849 113.021 316.932 116.776C324.015 120.531 329.476 125.821 333.316 132.648C337.241 139.389 339.204 147.197 339.204 156.072C339.204 164.861 337.241 172.669 333.316 179.496C329.476 186.323 323.972 191.613 316.804 195.368C309.721 199.123 301.487 201 292.1 201H258.436V111.144H292.1ZM290.692 182.056C298.969 182.056 305.412 179.795 310.02 175.272C314.628 170.749 316.932 164.349 316.932 156.072C316.932 147.795 314.628 141.352 310.02 136.744C305.412 132.136 298.969 129.832 290.692 129.832H280.324V182.056H290.692ZM393.932 201.896C385.484 201.896 377.719 199.933 370.636 196.008C363.639 192.083 358.049 186.621 353.868 179.624C349.772 172.541 347.724 164.605 347.724 155.816C347.724 147.027 349.772 139.133 353.868 132.136C358.049 125.139 363.639 119.677 370.636 115.752C377.719 111.827 385.484 109.864 393.932 109.864C402.38 109.864 410.103 111.827 417.1 115.752C424.183 119.677 429.729 125.139 433.74 132.136C437.836 139.133 439.884 147.027 439.884 155.816C439.884 164.605 437.836 172.541 433.74 179.624C429.644 186.621 424.097 192.083 417.1 196.008C410.103 199.933 402.38 201.896 393.932 201.896ZM393.932 181.928C401.1 181.928 406.817 179.539 411.084 174.76C415.436 169.981 417.612 163.667 417.612 155.816C417.612 147.88 415.436 141.565 411.084 136.872C406.817 132.093 401.1 129.704 393.932 129.704C386.679 129.704 380.876 132.051 376.524 136.744C372.257 141.437 370.124 147.795 370.124 155.816C370.124 163.752 372.257 170.109 376.524 174.888C380.876 179.581 386.679 181.928 393.932 181.928ZM501.074 184.104H529.746V201H479.186V111.144H501.074V184.104ZM562.074 111.144V201H540.186V111.144H562.074ZM610.448 201.896C603.877 201.896 597.989 200.829 592.784 198.696C587.579 196.563 583.397 193.405 580.24 189.224C577.168 185.043 575.547 180.008 575.376 174.12H598.672C599.013 177.448 600.165 180.008 602.128 181.8C604.091 183.507 606.651 184.36 609.808 184.36C613.051 184.36 615.611 183.635 617.488 182.184C619.365 180.648 620.304 178.557 620.304 175.912C620.304 173.693 619.536 171.859 618 170.408C616.549 168.957 614.715 167.763 612.496 166.824C610.363 165.885 607.291 164.819 603.28 163.624C597.477 161.832 592.741 160.04 589.072 158.248C585.403 156.456 582.245 153.811 579.6 150.312C576.955 146.813 575.632 142.248 575.632 136.616C575.632 128.253 578.661 121.725 584.72 117.032C590.779 112.253 598.672 109.864 608.4 109.864C618.299 109.864 626.277 112.253 632.336 117.032C638.395 121.725 641.637 128.296 642.064 136.744H618.384C618.213 133.843 617.147 131.581 615.184 129.96C613.221 128.253 610.704 127.4 607.632 127.4C604.987 127.4 602.853 128.125 601.232 129.576C599.611 130.941 598.8 132.947 598.8 135.592C598.8 138.493 600.165 140.755 602.896 142.376C605.627 143.997 609.893 145.747 615.696 147.624C621.499 149.587 626.192 151.464 629.776 153.256C633.445 155.048 636.603 157.651 639.248 161.064C641.893 164.477 643.216 168.872 643.216 174.248C643.216 179.368 641.893 184.019 639.248 188.2C636.688 192.381 632.933 195.709 627.984 198.184C623.035 200.659 617.189 201.896 610.448 201.896ZM721.326 111.144V128.68H697.518V201H675.63V128.68H651.822V111.144H721.326Z" fill="#FEEDE1"/>
<path opacity="0.6" d="M283.72 262.84C284.573 262.84 285.333 263.02 286 263.38C286.667 263.727 287.193 264.253 287.58 264.96C287.967 265.667 288.16 266.527 288.16 267.54V274H286.36V267.8C286.36 266.707 286.087 265.873 285.54 265.3C285.007 264.713 284.28 264.42 283.36 264.42C282.413 264.42 281.66 264.727 281.1 265.34C280.54 265.94 280.26 266.813 280.26 267.96V274H278.46V267.8C278.46 266.707 278.187 265.873 277.64 265.3C277.107 264.713 276.38 264.42 275.46 264.42C274.513 264.42 273.76 264.727 273.2 265.34C272.64 265.94 272.36 266.813 272.36 267.96V274H270.54V263.04H272.36V264.62C272.72 264.047 273.2 263.607 273.8 263.3C274.413 262.993 275.087 262.84 275.82 262.84C276.74 262.84 277.553 263.047 278.26 263.46C278.967 263.873 279.493 264.48 279.84 265.28C280.147 264.507 280.653 263.907 281.36 263.48C282.067 263.053 282.853 262.84 283.72 262.84ZM290.465 268.48C290.465 267.36 290.692 266.38 291.145 265.54C291.599 264.687 292.219 264.027 293.005 263.56C293.805 263.093 294.692 262.86 295.665 262.86C296.625 262.86 297.459 263.067 298.165 263.48C298.872 263.893 299.399 264.413 299.745 265.04V263.04H301.585V274H299.745V271.96C299.385 272.6 298.845 273.133 298.125 273.56C297.419 273.973 296.592 274.18 295.645 274.18C294.672 274.18 293.792 273.94 293.005 273.46C292.219 272.98 291.599 272.307 291.145 271.44C290.692 270.573 290.465 269.587 290.465 268.48ZM299.745 268.5C299.745 267.673 299.579 266.953 299.245 266.34C298.912 265.727 298.459 265.26 297.885 264.94C297.325 264.607 296.705 264.44 296.025 264.44C295.345 264.44 294.725 264.6 294.165 264.92C293.605 265.24 293.159 265.707 292.825 266.32C292.492 266.933 292.325 267.653 292.325 268.48C292.325 269.32 292.492 270.053 292.825 270.68C293.159 271.293 293.605 271.767 294.165 272.1C294.725 272.42 295.345 272.58 296.025 272.58C296.705 272.58 297.325 272.42 297.885 272.1C298.459 271.767 298.912 271.293 299.245 270.68C299.579 270.053 299.745 269.327 299.745 268.5ZM303.981 268.48C303.981 267.36 304.208 266.38 304.661 265.54C305.114 264.687 305.734 264.027 306.521 263.56C307.321 263.093 308.214 262.86 309.201 262.86C310.054 262.86 310.848 263.06 311.581 263.46C312.314 263.847 312.874 264.36 313.261 265V259.2H315.101V274H313.261V271.94C312.901 272.593 312.368 273.133 311.661 273.56C310.954 273.973 310.128 274.18 309.181 274.18C308.208 274.18 307.321 273.94 306.521 273.46C305.734 272.98 305.114 272.307 304.661 271.44C304.208 270.573 303.981 269.587 303.981 268.48ZM313.261 268.5C313.261 267.673 313.094 266.953 312.761 266.34C312.428 265.727 311.974 265.26 311.401 264.94C310.841 264.607 310.221 264.44 309.541 264.44C308.861 264.44 308.241 264.6 307.681 264.92C307.121 265.24 306.674 265.707 306.341 266.32C306.008 266.933 305.841 267.653 305.841 268.48C305.841 269.32 306.008 270.053 306.341 270.68C306.674 271.293 307.121 271.767 307.681 272.1C308.241 272.42 308.861 272.58 309.541 272.58C310.221 272.58 310.841 272.42 311.401 272.1C311.974 271.767 312.428 271.293 312.761 270.68C313.094 270.053 313.261 269.327 313.261 268.5ZM328.177 268.1C328.177 268.447 328.157 268.813 328.117 269.2H319.357C319.423 270.28 319.79 271.127 320.457 271.74C321.137 272.34 321.957 272.64 322.917 272.64C323.703 272.64 324.357 272.46 324.877 272.1C325.41 271.727 325.783 271.233 325.997 270.62H327.957C327.663 271.673 327.077 272.533 326.197 273.2C325.317 273.853 324.223 274.18 322.917 274.18C321.877 274.18 320.943 273.947 320.117 273.48C319.303 273.013 318.663 272.353 318.197 271.5C317.73 270.633 317.497 269.633 317.497 268.5C317.497 267.367 317.723 266.373 318.177 265.52C318.63 264.667 319.263 264.013 320.077 263.56C320.903 263.093 321.85 262.86 322.917 262.86C323.957 262.86 324.877 263.087 325.677 263.54C326.477 263.993 327.09 264.62 327.517 265.42C327.957 266.207 328.177 267.1 328.177 268.1ZM326.297 267.72C326.297 267.027 326.143 266.433 325.837 265.94C325.53 265.433 325.11 265.053 324.577 264.8C324.057 264.533 323.477 264.4 322.837 264.4C321.917 264.4 321.13 264.693 320.477 265.28C319.837 265.867 319.47 266.68 319.377 267.72H326.297ZM337.731 265.08C338.104 264.427 338.651 263.893 339.371 263.48C340.091 263.067 340.911 262.86 341.831 262.86C342.818 262.86 343.704 263.093 344.491 263.56C345.278 264.027 345.898 264.687 346.351 265.54C346.804 266.38 347.031 267.36 347.031 268.48C347.031 269.587 346.804 270.573 346.351 271.44C345.898 272.307 345.271 272.98 344.471 273.46C343.684 273.94 342.804 274.18 341.831 274.18C340.884 274.18 340.051 273.973 339.331 273.56C338.624 273.147 338.091 272.62 337.731 271.98V274H335.911V259.2H337.731V265.08ZM345.171 268.48C345.171 267.653 345.004 266.933 344.671 266.32C344.338 265.707 343.884 265.24 343.311 264.92C342.751 264.6 342.131 264.44 341.451 264.44C340.784 264.44 340.164 264.607 339.591 264.94C339.031 265.26 338.578 265.733 338.231 266.36C337.898 266.973 337.731 267.687 337.731 268.5C337.731 269.327 337.898 270.053 338.231 270.68C338.578 271.293 339.031 271.767 339.591 272.1C340.164 272.42 340.784 272.58 341.451 272.58C342.131 272.58 342.751 272.42 343.311 272.1C343.884 271.767 344.338 271.293 344.671 270.68C345.004 270.053 345.171 269.32 345.171 268.48ZM358.867 263.04L352.267 279.16H350.387L352.547 273.88L348.127 263.04H350.147L353.587 271.92L356.987 263.04H358.867ZM376.028 268.1C376.028 268.447 376.008 268.813 375.968 269.2H367.208C367.275 270.28 367.642 271.127 368.308 271.74C368.988 272.34 369.808 272.64 370.768 272.64C371.555 272.64 372.208 272.46 372.728 272.1C373.262 271.727 373.635 271.233 373.848 270.62H375.808C375.515 271.673 374.928 272.533 374.048 273.2C373.168 273.853 372.075 274.18 370.768 274.18C369.728 274.18 368.795 273.947 367.968 273.48C367.155 273.013 366.515 272.353 366.048 271.5C365.582 270.633 365.348 269.633 365.348 268.5C365.348 267.367 365.575 266.373 366.028 265.52C366.482 264.667 367.115 264.013 367.928 263.56C368.755 263.093 369.702 262.86 370.768 262.86C371.808 262.86 372.728 263.087 373.528 263.54C374.328 263.993 374.942 264.62 375.368 265.42C375.808 266.207 376.028 267.1 376.028 268.1ZM374.148 267.72C374.148 267.027 373.995 266.433 373.688 265.94C373.382 265.433 372.962 265.053 372.428 264.8C371.908 264.533 371.328 264.4 370.688 264.4C369.768 264.4 368.982 264.693 368.328 265.28C367.688 265.867 367.322 266.68 367.228 267.72H374.148ZM382.951 262.86C383.897 262.86 384.724 263.067 385.431 263.48C386.151 263.893 386.684 264.413 387.031 265.04V263.04H388.871V274.24C388.871 275.24 388.657 276.127 388.231 276.9C387.804 277.687 387.191 278.3 386.391 278.74C385.604 279.18 384.684 279.4 383.631 279.4C382.191 279.4 380.991 279.06 380.031 278.38C379.071 277.7 378.504 276.773 378.331 275.6H380.131C380.331 276.267 380.744 276.8 381.371 277.2C381.997 277.613 382.751 277.82 383.631 277.82C384.631 277.82 385.444 277.507 386.071 276.88C386.711 276.253 387.031 275.373 387.031 274.24V271.94C386.671 272.58 386.137 273.113 385.431 273.54C384.724 273.967 383.897 274.18 382.951 274.18C381.977 274.18 381.091 273.94 380.291 273.46C379.504 272.98 378.884 272.307 378.431 271.44C377.977 270.573 377.751 269.587 377.751 268.48C377.751 267.36 377.977 266.38 378.431 265.54C378.884 264.687 379.504 264.027 380.291 263.56C381.091 263.093 381.977 262.86 382.951 262.86ZM387.031 268.5C387.031 267.673 386.864 266.953 386.531 266.34C386.197 265.727 385.744 265.26 385.171 264.94C384.611 264.607 383.991 264.44 383.311 264.44C382.631 264.44 382.011 264.6 381.451 264.92C380.891 265.24 380.444 265.707 380.111 266.32C379.777 266.933 379.611 267.653 379.611 268.48C379.611 269.32 379.777 270.053 380.111 270.68C380.444 271.293 380.891 271.767 381.451 272.1C382.011 272.42 382.631 272.58 383.311 272.58C383.991 272.58 384.611 272.42 385.171 272.1C385.744 271.767 386.197 271.293 386.531 270.68C386.864 270.053 387.031 269.327 387.031 268.5ZM396.726 274.18C395.7 274.18 394.766 273.947 393.926 273.48C393.1 273.013 392.446 272.353 391.966 271.5C391.5 270.633 391.266 269.633 391.266 268.5C391.266 267.38 391.506 266.393 391.986 265.54C392.48 264.673 393.146 264.013 393.986 263.56C394.826 263.093 395.766 262.86 396.806 262.86C397.846 262.86 398.786 263.093 399.626 263.56C400.466 264.013 401.126 264.667 401.606 265.52C402.1 266.373 402.346 267.367 402.346 268.5C402.346 269.633 402.093 270.633 401.586 271.5C401.093 272.353 400.42 273.013 399.566 273.48C398.713 273.947 397.766 274.18 396.726 274.18ZM396.726 272.58C397.38 272.58 397.993 272.427 398.566 272.12C399.14 271.813 399.6 271.353 399.946 270.74C400.306 270.127 400.486 269.38 400.486 268.5C400.486 267.62 400.313 266.873 399.966 266.26C399.62 265.647 399.166 265.193 398.606 264.9C398.046 264.593 397.44 264.44 396.786 264.44C396.12 264.44 395.506 264.593 394.946 264.9C394.4 265.193 393.96 265.647 393.626 266.26C393.293 266.873 393.126 267.62 393.126 268.5C393.126 269.393 393.286 270.147 393.606 270.76C393.94 271.373 394.38 271.833 394.926 272.14C395.473 272.433 396.073 272.58 396.726 272.58ZM406.559 264.82C406.879 264.193 407.333 263.707 407.919 263.36C408.519 263.013 409.246 262.84 410.099 262.84V264.72H409.619C407.579 264.72 406.559 265.827 406.559 268.04V274H404.739V263.04H406.559V264.82ZM413.56 272.5H418.94V274H411.48V272.5L416.8 264.52H411.52V263.04H418.9V264.52L413.56 272.5ZM426.742 262.84C427.568 262.84 428.315 263.02 428.982 263.38C429.648 263.727 430.168 264.253 430.542 264.96C430.928 265.667 431.122 266.527 431.122 267.54V274H429.322V267.8C429.322 266.707 429.048 265.873 428.502 265.3C427.955 264.713 427.208 264.42 426.262 264.42C425.302 264.42 424.535 264.72 423.962 265.32C423.402 265.92 423.122 266.793 423.122 267.94V274H421.302V259.2H423.122V264.6C423.482 264.04 423.975 263.607 424.602 263.3C425.242 262.993 425.955 262.84 426.742 262.84ZM443.815 263.04V274H441.995V272.38C441.648 272.94 441.161 273.38 440.535 273.7C439.921 274.007 439.241 274.16 438.495 274.16C437.641 274.16 436.875 273.987 436.195 273.64C435.515 273.28 434.975 272.747 434.575 272.04C434.188 271.333 433.995 270.473 433.995 269.46V263.04H435.795V269.22C435.795 270.3 436.068 271.133 436.615 271.72C437.161 272.293 437.908 272.58 438.855 272.58C439.828 272.58 440.595 272.28 441.155 271.68C441.715 271.08 441.995 270.207 441.995 269.06V263.04H443.815ZM453.008 274L448.708 269.16V274H446.888V259.2H448.708V267.9L452.928 263.04H455.468L450.308 268.5L455.488 274H453.008Z" fill="url(#paint1_linear_478_212)"/>
<defs>
<linearGradient id="paint0_linear_478_212" x1="362.5" y1="0" x2="362.5" y2="312" gradientUnits="userSpaceOnUse">
<stop stop-color="#632329"/>
<stop offset="0.49648" stop-color="#F25551"/>
<stop offset="1" stop-color="#50F283" stop-opacity="0.8"/>
</linearGradient>
<linearGradient id="paint1_linear_478_212" x1="362.5" y1="252" x2="362.5" y2="282" gradientUnits="userSpaceOnUse">
<stop stop-color="#632329"/>
<stop offset="0.49648" stop-color="#F25551"/>
<stop offset="1" stop-color="#50F283" stop-opacity="0.8"/>
</linearGradient>
</defs>
</svg>
